PathFileType	4	(X/Y/Z)	S00_P01_T02_Participants1-2_P1_0-100.trc
DataRate	CameraRate	NumFrames	NumMarkers	Units	OrigDataRate	OrigDataStartFrame	OrigNumFrames
60	60	5	21	m	60	25	100
Frame#	Time	RHip			RKnee			RAnkle			RBigToe			RSmallToe			RHeel			LHip			LKnee			LAnkle			LBigToe			LSmallToe			LHeel			Neck			Head			Nose			RShoulder			RElbow			RWrist			LShoulder			LElbow			LWrist		
		X1	Y1	Z1	X2	Y2	Z2	X3	Y3	Z3	X4	Y4	Z4	X5	Y5	Z5	X6	Y6	Z6	X7	Y7	Z7	X8	Y8	Z8	X9	Y9	Z9	X10	Y10	Z10	X11	Y11	Z11	X12	Y12	Z12	X13	Y13	Z13	X14	Y14	Z14	X15	Y15	Z15	X16	Y16	Z16	X17	Y17	Z17	X18	Y18	Z18	X19	Y19	Z19	X20	Y20	Z20	X21	Y21	Z21
26	0.43333333333333335	-1.0510925984871575	0.9793986474533636	-0.974279225308868	-0.8759229724360043	0.9687563469787327	-0.73113442820065	-0.8881344650391583	0.9480474319159796	-0.9651703767029957	-0.7936604287071313	0.9435737481016248	-1.0458954841978487	-0.8162457231918935	0.9231521785587095	-1.0398239056553	-0.9111296410331742	0.9549331962088691	-1.0069437534531336	-1.0516357049011686	0.9800097065609936	-1.11846117307929	-0.8780527401460915	0.9712253937760695	-1.3566298920548898	-0.8897713212610492	0.9491741060684222	-1.1237591472626396	-0.7892633454222474	0.9409591769928334	-1.0577637785699348	-0.812995482516668	0.921166031509587	-1.0616495519569513	-0.9115902340513892	0.9558195231537269	-1.0791801566963974	-1.08958073551441	1.3854070052108518	-1.0569980530051042	-1.038168179739425	1.5468193014779983	-1.058263554342754	-1.0044729261044623	1.448570971452355	-1.0575689402431632	-1.096813796829083	1.332759665008026	-0.9260653650274452	-1.0384321344154108	1.1500361965318386	-0.8549687987416563	-0.8720229553025535	1.0869055909866474	-0.9313701918266631	-1.08094006533223	1.3374245452471816	-1.1781483385186355	-1.044453739133235	1.1650353602025882	-1.2645162427628884	-0.9085887026706895	1.1196055170524852	-1.1252917783196943
27	0.45	-1.0510904811929145	0.9780779986895325	-0.9742813207155541	-0.8759203726690288	0.9674360085363181	-0.7311388362953452	-0.887610847085844	0.9464914179499576	-0.9651819848339148	-0.7929657097630533	0.9419735291493595	-1.0456997515166313	-0.815557324717619	0.9215503976985131	-1.0396567880643457	-0.910522535390891	0.9533310919625664	-1.0070091164039074	-1.0516338470427704	0.9786891864308036	-1.1184632475686442	-0.8780516619574016	0.9699054163780978	-1.3566331824337068	-0.889769723610413	0.9478538882653997	-1.1237623778226573	-0.7892616724173909	0.9396390529873323	-1.057767924134886	-0.8129938043626772	0.9198459425443795	-1.061653483969401	-0.9115885086500046	0.954499221924833	-1.0791832878555099	-1.08957417081777	1.384089306945645	-1.0569951067919292	-1.0381618383852713	1.5455013626905292	-1.0582607748357462	-1.0044665952966783	1.4472530774031391	-1.0575653812754082	-1.0968067739834044	1.3314415604234278	-0.9260610348576683	-1.0385114814571403	1.1490439980736036	-0.8541334718957636	-0.87252533021466	1.0851874190930566	-0.9308516579986363	-1.0809375930494423	1.336102876446188	-1.1781526394775237	-1.044451903619454	1.1637144611103936	-1.264519642939645	-0.9084305009928637	1.1174874857744923	-1.1257875305303413
28	0.4666666666666667	-1.0510879729632836	0.9765128246798342	-0.9742838014176199	-0.8759172918935857	0.965871201742436	-0.7311440640427502	-0.8869901370070422	0.9446474947913575	-0.9651940286688225	-0.7921427519124753	0.9400775272808142	-1.0454655478889512	-0.8147417811229113	0.919652509186444	-1.0394565115920646	-0.9098027128440069	0.951432513985915	-1.0070845801335198	-1.0516316464139703	0.9771241647345467	-1.1184657006552843	-0.8780503846761407	0.9683410373081068	-1.3566370744036196	-0.8897678305331683	0.9462892245242311	-1.1237662034041718	-0.7892596896018356	0.9380745002369979	-1.0577728365726549	-0.8129918154057579	0.9182814313524785	-1.0616581430953642	-0.9115864642817748	0.952934459384714	-1.0791869960853875	-1.0895663893340326	1.3825276257949324	-1.056991609115253	-1.0381543219693343	1.5439393963154617	-1.058257472011686	-1.0044590910492432	1.4456911639721586	-1.0575611573304566	-1.0967984497094418	1.3298793978555081	-0.9260558999649007	-1.038606339658928	1.1478728215992111	-0.8531450656283862	-0.8731255575415268	1.083150856380287	-0.9302299456880939	-1.0809346681292527	1.3345364933864903	-1.1781577205741067	-1.0444497312967447	1.1621489900986666	-1.2645236598727412	-0.9082469626032295	1.1149788719653846	-1.126378975288545
29	0.48333333333333334	-1.0510850878019926	0.9747115338549743	-0.9742866527815146	-0.8759137468234701	0.9640703327867852	-0.7311500850889189	-0.8862756045775635	0.9425256682871227	-0.9652055887587994	-0.7911961793819019	0.9378961837704406	-1.0451930214991922	-0.8138036386015366	0.9174689467227393	-1.039223048744784	-0.9089738934616369	0.9492477469362884	-1.0071687402883511	-1.0516291154291815	0.9753230490167832	-1.1184685164529644	-0.8780489154163211	0.9665406603615736	-1.3566415432820251	-0.8897656523773266	0.9444885202918638	-1.1237706019162803	-0.7892574075923152	0.9362739235054174	-1.0577784891552362	-0.8129895262762523	0.9164809024893147	-1.0616635038599485	-0.9115841121641063	0.951133641547701	-1.0791912601514195	-1.0895574322142525	1.3807303494624914	-1.0569875758369989	-1.0381456704028518	1.5421417915032103	-1.0582536593323593	-0.9875298005044179	1.447913255341802	-1.0442796473353704	-1.096788868169226	1.3280815676633428	-0.9260499864993442	-1.0387166053598633	1.1465313142777984	-0.8520097154755291	-0.8738228102892613	1.0808068431934346	-0.9295047779357559	-1.0809313088125985	1.3327338109227966	-1.1781635464874247	-1.0444472354071253	1.1603473570221328	-1.2645282656513173	-0.9080410534385636	1.1120939787455608	-1.1270648577669358
30	0.5	-1.0510818417833245	0.972683803879366	-0.9742898580639984	-0.8759097566809917	0.9620430767376688	-0.7311568690016763	-0.8854710214124524	0.9401374508379707	-0.9652156562984245	-0.7901313086349988	0.9354415035340362	-1.0448824089135194	-0.8127481259786248	0.9150117075490799	-1.0389564332667791	-0.9080403726082598	0.946788625360661	-1.0072600378419538	-1.0516262683288837	0.9732955159264562	-1.1184716768640433	-0.8780472623378276	0.9645139578899077	-1.35664656090755	-0.8897632010308468	0.9424614498129165	-1.1237755480414062	-0.789254838600002	0.9342469962554213	-1.057784851149135	-0.8129869492021005	0.9144540291772686	-1.061669536979285	-0.9115814651823224	0.9491064433092173	-1.0791960557080824	-1.0895473468548287	1.3787071318728714	-1.0569830254161923	-1.0381359296434503	1.5401182038468784	-1.0582493525753385	-0.9875255850814967	1.445883331902415	-1.044286741097363	-1.0967780802202554	1.3260577268251552	-0.9260433246770152	-1.0388421337322156	1.1450292897245338	-0.8507344582844016	-0.8746159891962895	1.0781680727656997	-0.928676012374758	-1.0809275359275472	1.330704514119126	-1.1781700770761123	-1.0444444309878689	1.1583192412099217	-1.264533428559547	-0.9078160770198543	1.1088492454926415	-1.1278436064921922
